<svg width="192" height="50" viewBox="0 0 192 50" fill="none" xmlns="http://www.w3.org/2000/svg">
<g clip-path="url(#clip0_779_5451)">
<path d="M77.0848 39.0381C82.5412 39.0381 86.3721 36.141 86.3721 30.9781V30.9038C86.3721 26.3724 83.4811 24.4781 78.3497 23.1038C73.9765 21.9524 72.8926 21.3953 72.8926 19.6867V19.6124C72.8926 18.3496 74.0128 17.3467 76.1449 17.3467C78.277 17.3467 80.4818 18.3124 82.7222 19.9096L85.6132 15.601C83.0472 13.4838 79.9032 12.2953 76.2169 12.2953C71.0491 12.2953 67.3628 15.4153 67.3628 20.1324V20.2067C67.3628 25.3696 70.6515 26.8181 75.7473 28.1553C79.9758 29.2696 80.8431 30.0124 80.8431 31.461V31.5353C80.8431 33.0581 79.4699 33.9867 77.1931 33.9867C74.3021 33.9867 71.9164 32.761 69.6396 30.8296L66.351 34.8781C69.3866 37.6638 73.2539 39.0381 77.0848 39.0381ZM96.2407 39.001C98.0841 39.001 99.421 38.5553 100.578 37.8496V33.3181C99.7823 33.7638 98.8787 34.0238 97.8668 34.0238C96.6383 34.0238 96.096 33.3924 96.096 32.0924V23.5867H100.65V18.7581H96.096V13.6696H90.6033V18.7581H88.2902V23.5867H90.6033V33.021C90.6033 37.6267 92.88 39.001 96.2407 39.001ZM109.444 39.0381C112.118 39.0381 113.962 38.0353 115.299 36.5124V38.6667H120.611V27.1153C120.611 24.441 119.96 22.2496 118.515 20.7638C117.142 19.3524 114.974 18.5353 111.974 18.5353C108.685 18.5353 106.589 19.1667 104.457 20.1324L105.83 24.441C107.601 23.7724 109.083 23.3638 111.179 23.3638C113.925 23.3638 115.335 24.6638 115.335 27.0038V27.3381C113.962 26.8553 112.552 26.521 110.6 26.521C106.011 26.521 102.795 28.5267 102.795 32.8724V32.9467C102.795 36.8838 105.794 39.0381 109.444 39.0381ZM111.106 35.1381C109.336 35.1381 108.107 34.2467 108.107 32.7238V32.6496C108.107 30.8667 109.553 29.901 111.902 29.901C113.239 29.901 114.468 30.1981 115.407 30.6438V31.6467C115.407 33.6896 113.672 35.1381 111.106 35.1381ZM130.955 39.001C132.798 39.001 134.135 38.5553 135.292 37.8496V33.3181C134.497 33.7638 133.593 34.0238 132.581 34.0238C131.353 34.0238 130.81 33.3924 130.81 32.0924V23.5867H135.364V18.7581H130.81V13.6696H125.318V18.7581H123.005V23.5867H125.318V33.021C125.318 37.6267 127.594 39.001 130.955 39.001ZM138.774 16.5667H144.556V11.5524H138.774V16.5667ZM138.919 38.6667H144.411V18.7581H138.919V38.6667ZM158.327 39.1124C164.362 39.1124 168.844 34.4696 168.844 28.7496V28.6753C168.844 22.9553 164.399 18.3867 158.399 18.3867C152.364 18.3867 147.883 23.0296 147.883 28.7496V28.8238C147.883 34.5438 152.328 39.1124 158.327 39.1124ZM158.399 34.2467C155.364 34.2467 153.304 31.6838 153.304 28.7496V28.6753C153.304 25.741 155.183 23.2524 158.327 23.2524C161.363 23.2524 163.423 25.8153 163.423 28.7496V28.8238C163.423 31.7581 161.544 34.2467 158.399 34.2467ZM172.074 38.6667H177.567V27.561C177.567 24.8867 178.904 23.5124 181 23.5124C183.096 23.5124 184.325 24.8867 184.325 27.561V38.6667H189.818V25.7781C189.818 21.2096 187.397 18.3867 183.241 18.3867C180.458 18.3867 178.832 19.9096 177.567 21.581V18.7581H172.074V38.6667Z" fill="white"/>
<mask id="mask0_779_5451" style="mask-type:luminance" maskUnits="userSpaceOnUse" x="0" y="0" width="54" height="50">
<path d="M53.5 0H0.5V50H53.5V0Z" fill="white"/>
</mask>
<g mask="url(#mask0_779_5451)">
<path d="M12.4974 15.837C11.2528 18.3996 11.4132 21.2431 12.7669 22.9292C12.4841 20.7379 12.8631 18.5092 13.8511 16.5529C14.7973 14.5702 16.3015 12.9362 18.1625 11.8694H17.9251C15.8336 11.8895 13.6651 13.4885 12.4974 15.837Z" fill="#075CEE"/>
<path d="M45.9808 28.255C46.0513 25.1371 44.7682 22.3203 42.3559 21.0223L40.5788 20.0722L29.0305 13.9702L24.501 11.5683C23.0576 10.8432 21.4086 10.6979 19.8689 11.1601L13.2672 7.66754C10.3288 6.122 6.46656 7.94186 4.63809 11.682C2.80962 15.4221 3.70781 19.7845 6.62054 21.3301C6.65503 21.3518 6.69158 21.3697 6.7296 21.3836L13.2415 24.8628C13.7957 26.4174 14.8905 27.6977 16.3082 28.449C16.335 28.4606 16.3649 28.4606 16.3916 28.449L34.1502 37.8161C36.5818 39.1141 39.5202 38.532 41.8491 36.5984L44.2549 37.8696L48.3546 29.4259L45.9487 28.2082L45.9808 28.255Z" fill="#075CEE"/>
<path d="M7.83922 35.8491L19.195 42.1517L11.9709 49.8662C11.9251 49.9251 11.862 49.9668 11.7914 49.9849C11.7208 50.003 11.6463 49.9966 11.5796 49.9665H11.5475L0.692122 44.159C0.60526 44.1093 0.540491 44.0262 0.511706 43.9274C0.482922 43.8286 0.492413 43.722 0.538145 43.6304C0.554408 43.5973 0.573747 43.5659 0.595887 43.5367L7.83922 35.8491ZM17.0265 26.0939C17.0723 26.035 17.1353 25.9932 17.206 25.9751C17.2766 25.957 17.3511 25.9635 17.4178 25.9936H17.4499L28.2988 31.761C28.3436 31.7836 28.3835 31.8155 28.4161 31.8547C28.4486 31.894 28.4732 31.9397 28.4882 31.9892C28.5032 32.0387 28.5084 32.0909 28.5034 32.1425C28.4984 32.1942 28.4834 32.2441 28.4592 32.2896L28.4143 32.3632V32.3966L19.9905 41.3689L8.6091 35.0462L17.0265 26.0939ZM43.7542 32.3832C44.8898 30.0415 46.9621 28.7635 48.4056 29.5196C49.8491 30.2757 50.0801 32.7914 48.9445 35.1265C47.809 37.4615 45.7367 38.7462 44.2932 37.9901C42.8496 37.234 42.6122 34.6982 43.7542 32.3632V32.3832ZM17.9247 10.7587C18.5844 10.7482 19.2393 10.8779 19.8494 11.1401C19.3223 11.2983 18.811 11.509 18.3225 11.769L18.1556 11.8627H17.9183C15.8267 11.8627 13.6582 13.4886 12.4906 15.837C11.2459 18.3996 11.4063 21.2431 12.76 22.9292C12.8565 23.5689 13.0156 24.1966 13.2348 24.8026C10.5595 23.1232 9.82166 18.9817 11.5667 15.3352C12.9461 12.4983 15.4867 10.7587 17.9247 10.7587ZM33.6495 9.0459L44.9989 15.3887L40.5785 20.0723L29.0302 13.9703L33.6495 9.0459ZM42.0092 0.127099C42.0515 0.0635158 42.113 0.0164885 42.1839 -0.00653727C42.2548 -0.029563 42.331 -0.0272716 42.4005 -2.55555e-05L53.2879 5.81424C53.3769 5.86173 53.4452 5.94296 53.4786 6.04125C53.512 6.13955 53.5081 6.24745 53.4676 6.3428C53.4513 6.37592 53.432 6.4073 53.4098 6.43648L45.7944 14.539L34.413 8.21625L42.0092 0.127099Z" fill="#88B2FB"/>
</g>
</g>
<defs>
<clipPath id="clip0_779_5451">
<rect width="192" height="50" fill="white"/>
</clipPath>
</defs>
</svg>
